<?xml version="1.0" encoding="utf-8"?>
<!-- Generator: Adobe Illustrator 15.0.0, SVG Export Plug-In . SVG Version: 6.00 Build 0)  -->
<!DOCTYPE svg PUBLIC "-//W3C//DTD SVG 1.1//EN" "http://www.w3.org/Graphics/SVG/1.1/DTD/svg11.dtd">
<svg version="1.1" id="screen" xmlns="http://www.w3.org/2000/svg" xmlns:xlink="http://www.w3.org/1999/xlink" x="0px" y="0px"
	 width="109.682px" height="442px" viewBox="0 0 109.682 442" enable-background="new 0 0 109.682 442" xml:space="preserve">
	<g id="screen">
<rect x="0" y="95.167" fill="#4C437A" width="109.682" height="79.333"/>
<rect x="0" y="174.5" fill="#28CEF8" width="109.682" height="93"/>
<path fill="#FFFFFF" d="M0,16.25C-0.04,14.943,0,0,14.174-0.014L15.668,0v81.833H0C0,81.833,0.117,20.125,0,16.25z"/>
<rect x="15.668" fill="#FFFF01" width="15.669" height="81.833"/>
<rect x="31.337" fill="#2BD4FF" width="15.668" height="81.833"/>
<rect x="47.006" fill="#00FF01" width="15.669" height="81.833"/>
<rect x="62.675" fill="#FF00CD" width="15.668" height="81.833"/>
<rect x="78.343" fill="#FE0000" width="15.671" height="81.833"/>
<path fill="#0001F2" d="M94.013,0c0,0,0.307,0,1.494,0c13.521,0,14.185,14.167,14.185,14.167l-0.011,67.666H94.013V0z"/>
<rect x="0" y="81.833" fill="#0000FE" width="15.668" height="13.333"/>
<rect x="15.668" y="81.833" width="15.669" height="13.333"/>
<rect x="31.337" y="81.833" fill="#FF00CD" width="15.668" height="13.333"/>
<rect x="47.006" y="81.833" width="15.669" height="13.333"/>
<rect x="62.675" y="81.833" fill="#ABFFEF" width="15.668" height="13.333"/>
<rect x="78.343" y="81.833" width="15.671" height="13.333"/>
<rect x="94.013" y="81.833" fill="#B4B4B4" width="15.668" height="13.333"/>
<rect x="0" y="346.833" fill="#FFFFFF" width="15.668" height="81.833"/>
<rect x="15.668" y="346.833" fill="#FFFF01" width="15.669" height="81.833"/>
<rect x="31.337" y="346.833" fill="#2BD4FF" width="15.668" height="81.833"/>
<rect x="47.006" y="346.833" fill="#00FF01" width="15.669" height="81.833"/>
<rect x="62.675" y="346.833" fill="#FF00CD" width="15.668" height="81.833"/>
<rect x="78.343" y="346.833" fill="#FE0000" width="15.671" height="81.833"/>
<rect x="94.013" y="346.833" fill="#0001F2" width="15.668" height="81.833"/>
<rect x="0" y="428.666" fill="#0000FE" width="15.668" height="13.334"/>
<rect x="15.668" y="428.666" width="15.669" height="13.334"/>
<rect x="31.337" y="428.666" fill="#FF00CD" width="15.668" height="13.334"/>
<rect x="47.006" y="428.666" width="15.669" height="13.334"/>
<rect x="62.675" y="428.666" fill="#ABFFEF" width="15.668" height="13.334"/>
<rect x="78.343" y="428.666" width="15.671" height="13.334"/>
<rect x="94.013" y="428.666" fill="#B4B4B4" width="15.668" height="13.334"/>
<g>
	<path fill="#FFFFFF" d="M62.668,155.761c-1.982,0.777-4.226,1.166-6.724,1.166c-2.499,0-4.746-0.389-6.74-1.166
		c-1.994-0.777-3.643-1.832-4.944-3.166c-1.302-1.333-2.389-2.93-3.26-4.791c-0.872-1.86-1.491-3.827-1.857-5.899
		c-0.368-2.072-0.552-4.288-0.552-6.647c0-2.397,0.189-4.647,0.567-6.748c0.378-2.101,1.008-4.086,1.89-5.957
		c0.883-1.871,1.979-3.468,3.291-4.792c1.313-1.324,2.955-2.374,4.93-3.151c1.973-0.777,4.198-1.166,6.677-1.166
		c2.477,0,4.703,0.389,6.677,1.166c1.975,0.777,3.61,1.832,4.913,3.166c1.301,1.333,2.388,2.935,3.26,4.805
		c0.871,1.871,1.496,3.852,1.873,5.942c0.379,2.091,0.567,4.336,0.567,6.733c0,2.36-0.186,4.576-0.552,6.647
		c-0.367,2.071-0.98,4.043-1.843,5.913c-0.86,1.871-1.941,3.468-3.243,4.792C66.295,153.932,64.652,154.984,62.668,155.761z
		 M51.629,149.617c1.197,0.882,2.636,1.324,4.315,1.324s3.112-0.441,4.299-1.324c1.187-0.882,2.089-2.105,2.709-3.669
		c0.619-1.563,1.064-3.232,1.338-5.007c0.272-1.774,0.409-3.745,0.409-5.913c0-10.397-2.919-15.597-8.755-15.597
		c-5.795,0-8.735,5.161-8.818,15.481c0,2.187,0.137,4.172,0.409,5.957c0.272,1.784,0.725,3.468,1.354,5.05
		C49.518,147.501,50.433,148.735,51.629,149.617z"/>
</g>
<rect x="0" y="267.5" fill="#4C437A" width="109.682" height="79.333"/>
<g>
	<path fill="#FFFFFF" d="M62.668,328.094c-1.982,0.777-4.226,1.166-6.724,1.166c-2.499,0-4.746-0.389-6.74-1.166
		c-1.994-0.776-3.643-1.832-4.944-3.166c-1.302-1.332-2.389-2.93-3.26-4.791c-0.872-1.858-1.491-3.826-1.857-5.897
		c-0.368-2.072-0.552-4.287-0.552-6.647c0-2.396,0.189-4.646,0.567-6.746c0.378-2.103,1.008-4.088,1.89-5.957
		c0.883-1.871,1.979-3.469,3.291-4.791c1.313-1.324,2.955-2.375,4.93-3.152c1.973-0.775,4.198-1.164,6.677-1.164
		c2.477,0,4.703,0.389,6.677,1.164c1.975,0.777,3.61,1.832,4.913,3.166c1.301,1.334,2.388,2.936,3.26,4.806
		c0.871,1.87,1.496,3.853,1.873,5.942c0.379,2.092,0.567,4.336,0.567,6.732c0,2.36-0.186,4.575-0.552,6.647
		c-0.367,2.071-0.98,4.043-1.843,5.913c-0.861,1.87-1.941,3.468-3.243,4.792C66.295,326.267,64.652,327.316,62.668,328.094z
		 M51.629,321.95c1.197,0.882,2.636,1.323,4.315,1.323s3.112-0.441,4.299-1.323s2.089-2.105,2.709-3.669
		c0.619-1.563,1.064-3.232,1.338-5.008c0.272-1.773,0.409-3.744,0.409-5.912c0-10.398-2.919-15.598-8.755-15.598
		c-5.795,0-8.735,5.161-8.818,15.481c0,2.187,0.137,4.172,0.409,5.956s0.725,3.468,1.354,5.05
		C49.52,319.835,50.433,321.068,51.629,321.95z"/>
</g>
<rect x="15.84" y="208.5" fill="#313131" width="76.581" height="25"/>
<g>
	<path fill="#FFFFFF" d="M30.399,216.34v8.16h-1.561l-3.779-5.46v5.46h-1.548v-8.16h1.548l3.779,5.448v-5.448H30.399z"/>
	<path fill="#FFFFFF" d="M32.091,220.456c0-1.256,0.328-2.282,0.984-3.078s1.58-1.206,2.772-1.23c1.279,0,2.228,0.412,2.844,1.236
		c0.616,0.824,0.924,1.82,0.924,2.988c0,1.265-0.33,2.29-0.99,3.078s-1.586,1.194-2.777,1.218c-1.272,0-2.217-0.41-2.832-1.23
		C32.398,222.618,32.091,221.624,32.091,220.456z M33.711,220.444c0,0.856,0.172,1.556,0.517,2.1
		c0.344,0.544,0.88,0.815,1.607,0.815c0.656,0,1.181-0.243,1.572-0.731c0.392-0.487,0.588-1.24,0.588-2.256
		c0-0.848-0.172-1.544-0.516-2.088c-0.345-0.544-0.88-0.816-1.608-0.816c-0.64,0-1.16,0.269-1.56,0.804
		C33.911,218.808,33.711,219.532,33.711,220.444z"/>
	<path fill="#FFFFFF" d="M44.139,222.7c0.248,0.128,0.563,0.256,0.947,0.384c0.385,0.128,0.748,0.191,1.093,0.191
		c0.487,0,0.854-0.075,1.098-0.229c0.244-0.15,0.366-0.372,0.366-0.658c0-0.272-0.162-0.516-0.486-0.728s-0.682-0.418-1.074-0.618
		c-0.576-0.296-1.128-0.644-1.656-1.044c-0.527-0.4-0.787-0.956-0.779-1.668c0.008-0.616,0.254-1.134,0.737-1.554
		c0.484-0.42,1.175-0.63,2.07-0.63c0.408,0,0.816,0.064,1.225,0.192c0.407,0.128,0.768,0.268,1.079,0.42l-0.516,1.248
		c-0.248-0.12-0.516-0.234-0.804-0.342s-0.608-0.162-0.96-0.162c-0.345,0-0.634,0.068-0.87,0.204
		c-0.236,0.136-0.354,0.344-0.354,0.624c0,0.304,0.152,0.556,0.456,0.756c0.305,0.2,0.664,0.412,1.08,0.636
		c0.583,0.296,1.143,0.644,1.674,1.044c0.532,0.4,0.794,0.948,0.786,1.644c-0.008,0.647-0.271,1.184-0.792,1.606
		c-0.52,0.426-1.271,0.637-2.256,0.637c-0.344,0-0.786-0.075-1.326-0.229c-0.54-0.15-0.901-0.308-1.086-0.468L44.139,222.7z"/>
	<path fill="#FFFFFF" d="M52.311,216.34v8.16h-1.548v-8.16H52.311z"/>
	<path fill="#FFFFFF" d="M57.385,220.036h2.978v4.032c-0.313,0.168-0.688,0.31-1.128,0.426c-0.44,0.115-0.912,0.174-1.416,0.174
		c-1.272,0-2.227-0.41-2.862-1.23c-0.636-0.818-0.954-1.813-0.954-2.98c0-1.24,0.36-2.264,1.08-3.072
		c0.719-0.808,1.696-1.212,2.929-1.212c0.239,0,0.581,0.04,1.024,0.12c0.444,0.08,0.846,0.216,1.206,0.408l-0.491,1.116
		c-0.353-0.104-0.639-0.186-0.857-0.246c-0.22-0.06-0.507-0.09-0.858-0.09c-0.72,0-1.302,0.246-1.746,0.738
		c-0.442,0.492-0.666,1.234-0.666,2.226c0,0.896,0.183,1.607,0.547,2.13c0.363,0.522,0.901,0.784,1.613,0.784
		c0.264,0,0.492-0.014,0.684-0.041c0.192-0.027,0.36-0.059,0.505-0.09v-1.993h-1.716L57.385,220.036z"/>
	<path fill="#FFFFFF" d="M69.087,216.34v8.16h-1.561l-3.779-5.46v5.46h-1.549v-8.16h1.549l3.779,5.448v-5.448H69.087z"/>
	<path fill="#FFFFFF" d="M74.666,216.34l3.169,7.944l-1.561,0.216l-0.732-1.92h-3.096l-0.721,1.92h-1.561l3.182-8.16H74.666z
		 M73.97,218.476l-1.067,2.844h2.159L73.97,218.476z"/>
	<path fill="#FFFFFF" d="M84.302,224.5h-5.388v-8.16h1.548v6.948h3.601L84.302,224.5z"/>
</g>
	</g>
</svg>
