<?xml version="1.0" encoding="utf-8"?>
<!-- Generator: Adobe Illustrator 15.0.0, SVG Export Plug-In . SVG Version: 6.00 Build 0)  -->
<!DOCTYPE svg PUBLIC "-//W3C//DTD SVG 1.1//EN" "http://www.w3.org/Graphics/SVG/1.1/DTD/svg11.dtd">
<svg version="1.1" id="tv_1_" xmlns="http://www.w3.org/2000/svg" xmlns:xlink="http://www.w3.org/1999/xlink" x="0px" y="0px"
	 width="319.75px" height="193px" viewBox="16.5 0 319.75 193" enable-background="new 16.5 0 319.75 193" xml:space="preserve">
	<g id="tv-full">
<g id="four">
	<path opacity="0.3" fill="#231F20" enable-background="new    " d="M45.825,186.532c-35.7,1.467-5.894,2.233,5.363,2.233
		c11.75,0,17.125-0.354,34.543-0.289c-0.043-2.735-2.268-2.045-10.643-2.295S52.349,186.264,45.825,186.532z"/>
	<path opacity="0.3" fill="#231F20" enable-background="new    " d="M276.221,184.716c-35.699,1.468-5.894,2.233,5.363,2.233
		c11.75,0,17.125,0,34.543,0.063c16.02,0,6.086-1.826-11.044-2.063C296.705,184.831,282.745,184.448,276.221,184.716z"/>
	<g>
		<path fill="#313131" d="M17.71,139.393c7.561-6.275,15.453-12.683,23.673-19.209c8.217-6.525,16.484-13.108,24.796-19.754
			c8.311-6.638,16.576-13.225,24.796-19.752c8.217-6.528,16.109-12.932,23.673-19.209l-17.36,76.243l18.823,4.286l-4.286,18.822
			l-18.823-4.285l-7.272,31.941l-19.584-4.459l7.272-31.941L17.71,139.393z M83.03,109.866c-1.305,1.036-3.019,2.413-5.14,4.129
			c-2.125,1.716-4.302,3.521-6.533,5.413c-2.23,1.892-4.417,3.728-6.554,5.507c-2.14,1.782-3.798,3.204-4.971,4.269l17.872,4.068
			L83.03,109.866z"/>
	</g>
	<g>
		<path fill="#313131" d="M241.314,169.977c3.685-9.106,7.602-18.484,11.748-28.129c4.145-9.643,8.308-19.354,12.479-29.144
			c4.175-9.784,8.333-19.499,12.479-29.142c4.146-9.643,8.063-19.02,11.748-28.131l20.828,75.37l18.607-5.142l5.143,18.608
			l-18.604,5.142l8.726,31.577l-19.355,5.35l-8.729-31.577L241.314,169.977z M284.854,113.032c-0.658,1.53-1.515,3.555-2.567,6.071
			c-1.062,2.519-2.12,5.139-3.188,7.858c-1.067,2.726-2.125,5.375-3.162,7.955c-1.041,2.583-1.828,4.621-2.356,6.114l17.668-4.887
			L284.854,113.032z"/>
	</g>
</g>
<g id="tv">
	<path opacity="0.3" fill="#231F20" enable-background="new    " d="M127.417,5.417c0,0-2.583-0.083-2.5,5.167
		S124.915,34,124.915,34s-0.121,4.833,4.649,5s11.431,0.743,12.708-3.795c-0.438-2.038-1.354-28.288-1.354-28.288L127.417,5.417z"/>
	<path fill="#FFFFFF" stroke="#231F20" stroke-miterlimit="10" d="M134.421,4.615l-4.375,0.042c0,0-3.46-0.169-3.458,5.208
		c0.002,4,0,22.438,0,22.438s-0.25,4.75,5.25,4.75s5.5,0,5.5,0s6.21,0.25,6.21-5.5s0-22.5,0-22.5s-0.059-4.292-4.064-4.375
		C135.442,4.594,134.421,4.615,134.421,4.615z"/>
	<path fill="#FFFFFF" stroke="#231F20" stroke-miterlimit="10" d="M134.999,8.375c0,0-4.582-0.625-4.749,4.042s4.817,4.5,4.817,4.5
		s4.533,0.536,4.683-4.064C139.906,8.063,134.999,8.375,134.999,8.375z"/>
	<path fill="#FFFFFF" stroke="#231F20" stroke-miterlimit="10" d="M137.641,13.833c0,0,11.067-2.333,10.901,20.5
		s0.002,45.833,0.002,45.833S147.042,95.5,163.042,95.5c-0.333-1.667,0-2.125,0-2.125s-13.235,0.125-12.701-13.208
		c0.534-13.333,0-45.5,0-45.5s1.732-22.833-12.7-23C136.125,11.75,136.148,13.866,137.641,13.833z"/>
	<polygon fill="#AAAAAA" stroke="#231F20" stroke-miterlimit="10" points="214.223,48.616 198.938,84 203,84 215.305,48.946 	"/>
	<polygon fill="#AAAAAA" stroke="#231F20" stroke-miterlimit="10" points="175.5,61.468 191.375,86.374 193.5,84.5 176.375,60.75 	
		"/>
	<path fill="#F3F3F3" stroke="#231F20" stroke-miterlimit="10" d="M185.75,89.125c0,0,2-7.25,12.625-7.125s13.75,8.75,13.75,8.75
		S199.5,88.625,185.75,89.125z"/>
	<path fill="#AAAAAA" stroke="#231F20" stroke-miterlimit="10" d="M127.142,109.146c0,0,0.525-7.229,21.525-8.063
		s65.5-0.833,70.917-0.417s10.52,1.521,12.385,11.386c0.699-5.47,0.115-15.053-10.635-15.22s-76.5,1.5-76.5,1.5
		S127.667,99.083,127.142,109.146z"/>
	<path opacity="0.3" fill="#231F20" enable-background="new    " d="M168.151,186.352c0,0-39.389,0.354-45.889,0.979
		s-5.861,2.771,5.389,3.146s81.917-0.928,103.688,0.063c15.125,0.688,8.563-3.313,0.188-3.563S176.274,186.241,168.151,186.352z"/>
	<path fill="#E2E2E2" stroke="#231F20" stroke-miterlimit="10" d="M240.813,110.725c0,0,1.019-18.348-14.189-20.375
		c0,0-43.652-5.865-89.62,1.816c-14.14,2.363-21.009,5.658-20.886,35.48c0.123,29.82,1.501,40.009,1.501,40.009
		s0.077,20.372,14.052,20.51c13.974,0.138,85.071,0.494,96.757,0.192c11.687-0.303,14.052-13.371,13.974-26.517
		C242.314,148.703,240.813,110.725,240.813,110.725z M223.803,169.271c-7.701,0.195-78.566-0.037-87.777-0.127
		c-9.211-0.094-9.262-9.563-9.262-9.563s-1.049-21.546-1.05-41.204c-0.001-13.801,6.859-17.984,16.279-18.74
		c30.98-2.479,80.622-1.012,80.622-1.012c10.023,1.336,9.354,13.43,9.354,13.43s0.991,35.033,1.042,43.695
		C233.063,164.413,231.504,169.072,223.803,169.271z"/>
	<path fill="#3C71AA" stroke="#231F20" stroke-width="0.5" stroke-miterlimit="10" d="M221.285,173.62c0,0-0.651,0.339-1.26,2.478
		c-0.756,2.656,2.134,4.381,4.349,3.775c2.215-0.604,3.135-2.186,2.41-4.305C226.157,173.734,224.305,172.311,221.285,173.62z"/>
	<path fill="#5096E2" stroke="#231F20" stroke-width="0.5" stroke-miterlimit="10" d="M221.615,173.206c0,0-1.59,0.795-1.413,2.737
		c0.177,1.94,2.071,3.106,4.014,2.58c1.943-0.528,2.786-1.784,2.521-3.463C226.473,173.382,224.264,172.059,221.615,173.206z"/>
	<path fill="#537029" stroke="#231F20" stroke-width="0.5" stroke-miterlimit="10" d="M211.134,174.662c0,0-0.444,0.232-0.862,1.695
		c-0.518,1.813,1.461,2.996,2.978,2.582c1.519-0.414,2.146-1.496,1.646-2.945C214.466,174.741,213.2,173.768,211.134,174.662z"/>
	<path fill="#A5E051" stroke="#231F20" stroke-width="0.5" stroke-miterlimit="10" d="M211.359,174.378c0,0-1.086,0.544-0.967,1.873
		c0.121,1.33,1.418,2.127,2.746,1.765c1.326-0.358,1.902-1.221,1.725-2.367C214.682,174.5,213.171,173.593,211.359,174.378z"/>
	<path fill="#537029" stroke="#231F20" stroke-width="0.5" stroke-miterlimit="10" d="M202.657,174.809c0,0-0.445,0.232-0.862,1.695
		c-0.518,1.817,1.46,2.996,2.975,2.582c1.519-0.414,2.146-1.495,1.648-2.945C205.989,174.889,204.723,173.914,202.657,174.809z"/>
	<path fill="#A5E051" stroke="#231F20" stroke-width="0.5" stroke-miterlimit="10" d="M202.882,174.525c0,0-1.087,0.543-0.967,1.873
		c0.121,1.33,1.417,2.127,2.745,1.765c1.329-0.362,1.906-1.222,1.724-2.368C206.204,174.646,204.693,173.74,202.882,174.525z"/>
	<path fill="#537029" stroke="#231F20" stroke-width="0.5" stroke-miterlimit="10" d="M193.898,174.809c0,0-0.444,0.232-0.861,1.695
		c-0.518,1.817,1.46,2.996,2.975,2.582c1.516-0.414,2.146-1.495,1.649-2.945C197.232,174.889,195.965,173.914,193.898,174.809z"/>
	<path fill="#A5E051" stroke="#231F20" stroke-width="0.5" stroke-miterlimit="10" d="M194.125,174.525c0,0-1.087,0.543-0.966,1.873
		c0.12,1.33,1.416,2.127,2.745,1.765c1.328-0.362,1.904-1.222,1.724-2.368C197.447,174.646,195.938,173.74,194.125,174.525z"/>
	
		<line fill="none" stroke="#FFFFFF" stroke-width="0.5" stroke-linecap="round" stroke-linejoin="round" stroke-miterlimit="10" x1="223.448" y1="174.139" x2="223.466" y2="175.486"/>
	<path fill="none" stroke="#FFFFFF" stroke-width="0.5" stroke-linecap="round" stroke-linejoin="round" stroke-miterlimit="10" d="
		M222.402,174.982c0,0-0.383,0.354-0.241,0.926c0.254,1.033,1.743,0.758,1.743,0.758s1.494-0.234,0.713-1.696"/>
	<path fill="none" stroke="#231F20" stroke-miterlimit="10" d="M119.291,177.533c0,0,2.168,6.592,10.793,6.717s98,0.01,98,0.01
		s11.667,0.407,13.23-9.333"/>
	<path opacity="0.3" fill="#231F20" enable-background="new    " d="M120.541,180.604c0,0,4.043,3.35,7.626,3.705
		c3.583,0.357,67.667,0,67.667,0h33.333c0,0,7.64-0.524,10.985-5.252c-0.985,2.276-2.482,9.283-14.4,9.352
		c-11.918,0.063-94.591-0.258-94.591-0.258S123.914,188.123,120.541,180.604z"/>
	<path fill="#E2D133" stroke="#231F20" stroke-width="0.5" stroke-miterlimit="10" d="M131.333,172.902h7.179
		c0,0,1.946,0,1.946,2.658c0,3.707-0.934,3.781-3.347,3.707c-2.413-0.078-5.586-0.102-5.586-0.102s-1.754,0.006-1.806-2.357
		C129.672,174.708,129.386,172.902,131.333,172.902z"/>
	
		<line fill="none" stroke="#231F20" stroke-width="0.5" stroke-linecap="round" stroke-linejoin="round" stroke-miterlimit="10" x1="131.978" y1="175.063" x2="137.843" y2="175.063"/>
	
		<line fill="none" stroke="#231F20" stroke-width="0.5" stroke-linecap="round" stroke-linejoin="round" stroke-miterlimit="10" x1="131.978" y1="176.24" x2="136.875" y2="176.24"/>
	
		<line fill="none" stroke="#231F20" stroke-width="0.5" stroke-linecap="round" stroke-linejoin="round" stroke-miterlimit="10" x1="131.978" y1="177.417" x2="137.843" y2="177.417"/>
	<circle fill="#E2E2E2" stroke="#231F20" stroke-miterlimit="10" cx="175.917" cy="60.75" r="2"/>
	<circle fill="#E2E2E2" stroke="#231F20" stroke-miterlimit="10" cx="214.674" cy="49.132" r="2.222"/>
	<path opacity="0.3" fill="#231F20" enable-background="new    " d="M195.125,82.563c0,0-3.999,1.89-1.625,3.812
		s7.813,1.834,7.813,1.834h-14.938C186.375,88.208,189.35,82.921,195.125,82.563z"/>
	<path opacity="0.3" fill="#231F20" enable-background="new    " d="M121.594,99.109c0,0-4.881,5.558-3.488,44.224
		c1.184,34.199,4.255,34.869,7.269,37.229c4.708,3.688,20.23,2.709,54.928,3.736c-7.136,0.031-35.533,0.256-50.626-0.063
		c-10.427,0.014-11.169-9.346-11.387-10.563C118.072,172.46,111.813,107.971,121.594,99.109z"/>
	<path fill="#FFFFFF" stroke="#231F20" stroke-width="0.5" stroke-miterlimit="10" d="M135.067,22.354c0,0-4.583-0.285-4.75,4.382
		s4.817,4.5,4.817,4.5s4.533,0.536,4.683-4.064C139.974,22.382,135.067,22.354,135.067,22.354z"/>
	
		<line fill="none" stroke="#231F20" stroke-linecap="round" stroke-linejoin="round" stroke-miterlimit="10" x1="134.042" y1="26.671" x2="134.042" y2="27.251"/>
	
		<line fill="none" stroke="#231F20" stroke-linecap="round" stroke-linejoin="round" stroke-miterlimit="10" x1="136.266" y1="26.671" x2="136.266" y2="27.251"/>
	<path fill="none" stroke="#231F20" stroke-width="0.5" stroke-miterlimit="10" d="M134.042,8.364c0,0-2.187,0.594-2.229,4.135
		c0,2.532,0.885,3.746,1.739,4.236"/>
	<path opacity="0.3" fill="#231F20" enable-background="new    " d="M129.875,11.188c0,0-0.936,3.656,0.438,6.156
		s5.187,1.563,5.952,1.094c0.765-0.469,3.324-2.625,3.404-3.219c-1.076,0.656-2.482,1.969-4.326,1.656
		c-1.844-0.313-3.446,0.048-3.458-5.351c0.018-1.114,1.165-2.994,1.165-2.994S130.625,9.094,129.875,11.188z"/>
	<path opacity="0.3" fill="#231F20" enable-background="new    " d="M133.813,22.708c0,0,4.042-0.958,4.958,3.708
		c0.689,3.509-1.433,4.543-1.433,4.543s3.023-0.815,2.416-4.904C139.104,21.688,134.439,22.515,133.813,22.708z"/>
</g>
	</g>
</svg>
